<?xml version="1.0" encoding="UTF-8"?>
<svg xmlns="http://www.w3.org/2000/svg" xmlns:xlink="http://www.w3.org/1999/xlink" width="310" height="300" viewBox="0 0 310 300">
  <g id="Gruppe">
    <g id="Minerva">
      <g id="MPE-2">
        <path id="path2000" fill="#006c66" fill-rule="evenodd" stroke="none" d="M 82.000854 176.407822 C 102.874634 197.78067 214.597717 203.84317 247.317627 160.950668 C 175.888794 253.341324 97.002991 209.670807 82.000854 176.407822 Z"></path>
        <path id="path2002" fill="#006c66" stroke="#007977" stroke-width="0.792675" stroke-linecap="round" stroke-linejoin="round" d="M 82.000854 176.407822 C 102.874634 197.78067 214.597717 203.84317 247.317627 160.950668 C 175.888794 253.341324 97.002991 209.670807 82.000854 176.407822 Z"></path>
        <path id="path2004" fill="#006c66" fill-rule="evenodd" stroke="none" d="M 164.5271 47.671555 C 284.411865 -24.124237 327.847534 53.954239 247.27356 160.994705 C 363.826172 14.526001 305.91687 -51.544922 164.5271 47.671555 Z"></path>
        <path id="path2006" fill="#006c66" stroke="#007977" stroke-width="0.792675" stroke-linecap="round" stroke-linejoin="round" d="M 164.5271 47.671555 C 284.411865 -24.124237 327.847534 53.954239 247.27356 160.994705 C 363.826172 14.526001 305.91687 -51.544922 164.5271 47.671555 Z"></path>
        <path id="path2008" fill="#006c66" fill-rule="evenodd" stroke="none" d="M 227.985168 123.562836 C 207.09668 102.175293 95.373596 96.112793 62.668365 139.00531 C 134.097168 46.658691 212.968384 90.314514 227.985168 123.562836 Z"></path>
        <path id="path2010" fill="#006c66" stroke="#007977" stroke-width="0.792675" stroke-linecap="round" stroke-linejoin="round" d="M 227.985168 123.562836 C 207.09668 102.175293 95.373596 96.112793 62.668365 139.00531 C 134.097168 46.658691 212.968384 90.314514 227.985168 123.562836 Z"></path>
        <path id="path2012" fill="#006c66" fill-rule="evenodd" stroke="none" d="M 145.444214 252.328461 C 25.559448 324.124268 -17.87619 246.045776 62.712463 139.00531 C -53.840149 285.473999 4.069183 351.544922 145.444214 252.328461 Z"></path>
        <path id="path2014" fill="#006c66" stroke="#007977" stroke-width="0.792675" stroke-linecap="round" stroke-linejoin="round" d="M 145.444214 252.328461 C 25.559448 324.124268 -17.87619 246.045776 62.712463 139.00531 C -53.840149 285.473999 4.069183 351.544922 145.444214 252.328461 Z"></path>
        <path id="polygon2016" fill="#006c66" stroke="none" d="M 110.566528 161.053421 L 131.352173 132.751984 L 140.115662 132.751984 L 140.115662 166.000305 L 134.420166 166.000305 L 134.420166 136.39241 L 134.273376 136.39241 L 112.959229 166.000305 L 108.115112 166.000305 L 86.947754 136.39241 L 86.800903 136.39241 L 86.800903 166.000305 L 81.105469 166.000305 L 81.105469 132.751984 L 89.868896 132.751984 Z"></path>
        <path id="polygon2018" fill="#006c66" stroke="#007977" stroke-width="1.467916" stroke-linecap="round" stroke-linejoin="round" d="M 110.566528 161.053421 L 131.352173 132.751984 L 140.115662 132.751984 L 140.115662 166.000305 L 134.420166 166.000305 L 134.420166 136.39241 L 134.273376 136.39241 L 112.959229 166.000305 L 108.115112 166.000305 L 86.947754 136.39241 L 86.800903 136.39241 L 86.800903 166.000305 L 81.105469 166.000305 L 81.105469 132.751984 L 89.868896 132.751984 Z"></path>
        <path id="path2020" fill="#006c66" stroke="none" d="M 157.437134 135.761215 L 165.672119 135.761215 C 171.749268 135.761215 173.833679 135.761215 177.06311 136.61261 C 181.466919 137.830978 183.683411 140.164963 183.683411 142.675095 C 183.683411 145.185242 181.525574 147.519226 177.06311 148.737595 C 173.833679 149.588989 171.749268 149.588989 165.672119 149.588989 L 157.437134 149.588989 Z M 151.741577 166.000305 L 157.437134 166.000305 L 157.437134 152.6129 L 167.595032 152.6129 C 175.448425 152.6129 179.132935 151.893616 182.274231 150.689926 C 186.501831 149.031174 189.349609 146.198105 189.349609 142.689774 C 189.349609 139.181458 186.501831 136.363068 182.274231 134.689636 C 179.118225 133.471268 175.433716 132.751984 167.595032 132.751984 L 151.741577 132.751984 Z"></path>
        <path id="path2022" fill="#006c66" stroke="#007977" stroke-width="1.467916" stroke-linecap="round" stroke-linejoin="round" d="M 157.437134 135.761215 L 165.672119 135.761215 C 171.749268 135.761215 173.833679 135.761215 177.06311 136.61261 C 181.466919 137.830978 183.683411 140.164963 183.683411 142.675095 C 183.683411 145.185242 181.525574 147.519226 177.06311 148.737595 C 173.833679 149.588989 171.749268 149.588989 165.672119 149.588989 L 157.437134 149.588989 Z M 151.741577 166.000305 L 157.437134 166.000305 L 157.437134 152.6129 L 167.595032 152.6129 C 175.448425 152.6129 179.132935 151.893616 182.274231 150.689926 C 186.501831 149.031174 189.349609 146.198105 189.349609 142.689774 C 189.349609 139.181458 186.501831 136.363068 182.274231 134.689636 C 179.118225 133.471268 175.433716 132.751984 167.595032 132.751984 L 151.741577 132.751984 Z"></path>
        <path id="polygon2024" fill="#006c66" stroke="none" d="M 228.073242 135.761215 L 202.59021 135.761215 L 202.59021 147.710052 L 227.221802 147.710052 L 227.221802 150.719284 L 202.59021 150.719284 L 202.59021 162.991058 L 228.073242 162.991058 L 228.073242 166.000305 L 196.909363 166.000305 L 196.909363 132.751984 L 228.073242 132.751984 Z"></path>
        <path id="polygon2026" fill="#006c66" stroke="#007977" stroke-width="1.467916" stroke-linecap="round" stroke-linejoin="round" d="M 228.073242 135.761215 L 202.59021 135.761215 L 202.59021 147.710052 L 227.221802 147.710052 L 227.221802 150.719284 L 202.59021 150.719284 L 202.59021 162.991058 L 228.073242 162.991058 L 228.073242 166.000305 L 196.909363 166.000305 L 196.909363 132.751984 L 228.073242 132.751984 Z"></path>
      </g>
    </g>
  </g>
</svg>
